<?xml version="1.0" standalone="no"?>
<!DOCTYPE svg PUBLIC "-//W3C//DTD SVG 20010904//EN"
 "http://www.w3.org/TR/2001/REC-SVG-20010904/DTD/svg10.dtd">
<svg version="1.0" xmlns="http://www.w3.org/2000/svg"
 width="1024.000000pt" height="1024.000000pt" viewBox="0 0 1024.000000 1024.000000"
 preserveAspectRatio="xMidYMid meet">
<metadata>
Created by potrace 1.16, written by Peter Selinger 2001-2019
</metadata>
<defs>
  <!-- Glow effect filter -->
  <filter id="glow" x="-50%" y="-50%" width="200%" height="200%">
    <feGaussianBlur stdDeviation="4" result="coloredBlur"/>
    <feMerge> 
      <feMergeNode in="coloredBlur"/>
      <feMergeNode in="SourceGraphic"/>
    </feMerge>
  </filter>
  
  <!-- Gradient for depth -->
  <linearGradient id="redGradient" x1="0%" y1="0%" x2="100%" y2="100%">
    <stop offset="0%" style="stop-color:#FF5C5C;stop-opacity:1" />
    <stop offset="50%" style="stop-color:#FF3B3B;stop-opacity:1" />
    <stop offset="100%" style="stop-color:#CC2F2F;stop-opacity:1" />
  </linearGradient>
</defs>
<g transform="translate(0.000000,1024.000000) scale(0.100000,-0.100000)"
fill="url(#redGradient)" stroke="none" filter="url(#glow)">
<path d="M6910 7211 c-52 -17 -110 -52 -147 -89 -37 -36 -155 -167 -378 -422
-61 -68 -117 -132 -125 -140 -8 -9 -39 -44 -69 -78 -29 -34 -58 -59 -64 -55
-5 3 -7 1 -4 -4 7 -11 -22 -45 -513 -608 -539 -617 -591 -676 -601 -669 -5 3
-9 2 -8 -3 3 -19 -2 -33 -11 -33 -6 0 -99 90 -208 200 -233 236 -260 253 -400
252 -73 0 -91 -4 -147 -31 -169 -83 -241 -282 -160 -442 15 -28 60 -87 101
-131 41 -44 71 -84 68 -90 -4 -6 -3 -8 3 -5 14 9 401 -397 396 -415 -2 -4 3
-7 10 -5 7 1 11 -6 10 -18 -2 -12 0 -14 4 -6 4 9 26 -8 71 -55 36 -38 66 -72
66 -76 1 -4 7 -13 15 -20 12 -11 13 -11 6 1 -6 11 -4 13 11 6 66 -27 96 -34
154 -35 140 0 186 30 370 244 78 91 147 163 153 159 5 -3 7 -1 4 4 -4 6 26 49
66 95 39 47 128 152 197 233 69 82 223 263 343 404 773 907 743 872 752 863 4
-4 5 -2 3 5 -2 6 34 53 78 105 383 437 399 461 396 581 -1 72 -27 129 -85 187
-65 66 -134 94 -242 97 -49 1 -101 -1 -115 -6z"/>
<path d="M4890 7090 c-176 -11 -357 -47 -521 -106 -41 -15 -87 -27 -104 -27
-16 0 -24 -2 -17 -4 7 -3 -45 -33 -115 -68 -138 -68 -251 -138 -351 -217 -34
-27 -70 -51 -80 -53 -9 -1 -16 -7 -15 -13 2 -6 -18 -28 -44 -49 -144 -118
-348 -391 -453 -607 -200 -411 -249 -917 -134 -1385 42 -171 143 -403 240
-553 24 -38 41 -74 38 -80 -4 -7 -2 -8 4 -4 13 8 35 -28 24 -39 -4 -3 -2 -5 4
-3 5 1 44 -37 86 -87 41 -49 111 -124 154 -165 44 -41 79 -79 79 -84 0 -5 8
-10 17 -12 18 -2 69 -38 65 -45 -1 -2 0 -3 2 -2 10 6 120 -81 114 -90 -3 -5
-1 -7 5 -3 11 7 118 -53 120 -67 0 -5 4 -12 8 -15 4 -4 4 -1 0 6 -9 16 -13 17
77 -26 43 -21 74 -42 70 -46 -4 -4 1 -4 11 0 13 5 17 4 12 -4 -3 -6 -1 -14 5
-18 8 -5 9 -3 4 6 -6 10 -4 12 11 6 169 -66 336 -110 519 -137 103 -15 415
-15 525 1 210 29 434 103 646 215 67 35 125 62 128 59 3 -2 4 -1 1 2 -2 4 28
29 67 56 40 28 85 61 101 74 16 13 33 22 38 18 5 -3 8 -2 7 3 -2 5 28 38 67
73 281 262 466 561 569 923 89 308 96 700 20 1012 -22 89 -67 225 -74 225 -4
0 -33 -30 -66 -67 -32 -37 -82 -92 -110 -122 -28 -31 -99 -110 -158 -176
l-107 -120 6 -85 c12 -154 -22 -412 -75 -571 -55 -165 -161 -350 -276 -480
-107 -121 -244 -236 -265 -223 -8 4 -9 3 -5 -4 8 -14 -41 -45 -171 -111 -199
-100 -380 -142 -613 -142 -230 1 -391 37 -612 138 -32 14 -55 29 -53 33 2 4
-2 7 -10 7 -44 0 -265 170 -374 289 -166 180 -278 397 -331 639 -71 328 -32
677 107 950 74 147 178 293 204 287 8 -2 11 0 7 4 -21 20 148 178 292 273 250
165 483 234 790 234 237 0 443 -47 634 -146 l79 -40 36 43 c43 51 310 413 311
420 0 7 -48 35 -163 95 -54 28 -94 55 -90 60 5 4 2 5 -4 1 -7 -4 -54 9 -105
28 -247 92 -524 132 -808 116z"/>
</g>
</svg>
